<?xml version="1.0" encoding="UTF-8"?>
<!DOCTYPE svg PUBLIC "-//W3C//DTD SVG 1.1//EN" "http://www.w3.org/Graphics/SVG/1.1/DTD/svg11.dtd">
<svg xmlns="http://www.w3.org/2000/svg" version="1.1" width="51px" height="51px" style="shape-rendering:geometricPrecision; text-rendering:geometricPrecision; image-rendering:optimizeQuality; fill-rule:evenodd; clip-rule:evenodd" xmlns:xlink="http://www.w3.org/1999/xlink">
<g><path style="opacity:0.82" fill="#083963" d="M 4.5,-0.5 C 7.5,-0.5 10.5,-0.5 13.5,-0.5C 13.5,0.5 13.5,1.5 13.5,2.5C 10.3915,2.26414 7.39147,2.59748 4.5,3.5C 3.5,2.16667 2.5,2.16667 1.5,3.5C 2.21119,1.96995 3.21119,0.636613 4.5,-0.5 Z"/></g>
<g><path style="opacity:0.81" fill="#093867" d="M 15.5,-0.5 C 17.5,-0.5 19.5,-0.5 21.5,-0.5C 21.4677,1.61885 22.4677,2.95218 24.5,3.5C 24.5,4.83333 23.8333,5.5 22.5,5.5C 20.0786,5.00734 17.7453,5.00734 15.5,5.5C 14.181,3.46837 14.181,1.46837 15.5,-0.5 Z"/></g>
<g><path style="opacity:0.685" fill="#073a65" d="M 38.5,-0.5 C 40.5,-0.5 42.5,-0.5 44.5,-0.5C 45.1667,0.166667 45.8333,0.833333 46.5,1.5C 45.1667,1.5 44.5,2.16667 44.5,3.5C 42.9582,2.69929 41.2915,2.36596 39.5,2.5C 39.4431,1.39105 39.1098,0.391047 38.5,-0.5 Z"/></g>
<g><path style="opacity:0.867" fill="#073968" d="M 34.5,-0.5 C 35.8333,-0.5 37.1667,-0.5 38.5,-0.5C 39.1098,0.391047 39.4431,1.39105 39.5,2.5C 38.1667,2.5 36.8333,2.5 35.5,2.5C 34.0413,2.56745 32.7079,2.23411 31.5,1.5C 32.5,0.833333 33.5,0.166667 34.5,-0.5 Z"/></g>
<g><path style="opacity:0.668" fill="#0a3762" d="M 31.5,1.5 C 32.7079,2.23411 34.0413,2.56745 35.5,2.5C 33.6115,3.32198 31.6115,4.15532 29.5,5C 28.4019,5.76971 28.4019,6.60305 29.5,7.5C 27.9826,7.48944 26.8159,6.82277 26,5.5C 25.6174,6.05596 25.1174,6.38929 24.5,6.5C 23.7304,8.29858 22.397,9.63191 20.5,10.5C 19.4173,9.63505 19.2506,8.63505 20,7.5C 20.9947,6.93406 21.828,6.26739 22.5,5.5C 23.8333,5.5 24.5,4.83333 24.5,3.5C 26.0861,2.58679 27.5861,2.58679 29,3.5C 29.4169,2.24402 30.2502,1.57735 31.5,1.5 Z"/></g>
<g><path style="opacity:0.83" fill="#073965" d="M 46.5,1.5 C 48.539,2.67178 49.8724,4.33844 50.5,6.5C 50.5,8.5 50.5,10.5 50.5,12.5C 49.6981,11.0484 49.1981,9.38172 49,7.5C 48.8091,9.70779 48.3091,11.7078 47.5,13.5C 47.6633,11.1432 47.4966,8.80982 47,6.5C 46.6232,5.05773 45.7899,4.05773 44.5,3.5C 44.5,2.16667 45.1667,1.5 46.5,1.5 Z"/></g>
<g><path style="opacity:0.687" fill="#083a66" d="M 4.5,3.5 C 2.77386,5.82007 2.1072,8.48674 2.5,11.5C 1.5,11.5 0.5,11.5 -0.5,11.5C -0.5,9.5 -0.5,7.5 -0.5,5.5C 0.166667,4.83333 0.833333,4.16667 1.5,3.5C 2.5,2.16667 3.5,2.16667 4.5,3.5 Z"/></g>
<g><path style="opacity:0.559" fill="#0b3966" d="M 29.5,7.5 C 30.7095,7.93205 31.7095,8.59872 32.5,9.5C 32.6716,10.4916 32.3382,11.1583 31.5,11.5C 28.883,10.2141 26.5496,8.54745 24.5,6.5C 25.1174,6.38929 25.6174,6.05596 26,5.5C 26.8159,6.82277 27.9826,7.48944 29.5,7.5 Z"/></g>
<g><path style="opacity:0.944" fill="#0a3661" d="M 32.5,9.5 C 35.16,12.1335 37.8267,14.8001 40.5,17.5C 39.2243,18.6446 37.891,18.6446 36.5,17.5C 34.8103,15.4807 33.1436,13.4807 31.5,11.5C 32.3382,11.1583 32.6716,10.4916 32.5,9.5 Z"/></g>
<g><path style="opacity:0.681" fill="#053860" d="M -0.5,13.5 C 2.5,13.1667 3.83333,14.5 3.5,17.5C 1.80072,17.4729 0.46739,16.8062 -0.5,15.5C -0.5,14.8333 -0.5,14.1667 -0.5,13.5 Z"/></g>
<g><path style="opacity:0.963" fill="#093b66" d="M 11.5,18.5 C 11.1583,17.6618 10.4916,17.3284 9.5,17.5C 11.7009,14.8215 14.2009,12.4882 17,10.5C 18.2575,10.8499 18.5908,11.5165 18,12.5C 16.2894,15.0459 14.1227,17.0459 11.5,18.5 Z"/></g>
<g><path style="opacity:0.954" fill="#093a68" d="M 50.5,12.5 C 50.5,12.8333 50.5,13.1667 50.5,13.5C 49.1667,13.8333 49.1667,14.1667 50.5,14.5C 50.5,15.5 50.5,16.5 50.5,17.5C 49.2921,16.7659 47.9587,16.4326 46.5,16.5C 45.8333,16.5 45.5,16.8333 45.5,17.5C 44.5028,17.5299 43.8361,17.0299 43.5,16C 44.3557,14.4053 45.6891,13.572 47.5,13.5C 48.3091,11.7078 48.8091,9.70779 49,7.5C 49.1981,9.38172 49.6981,11.0484 50.5,12.5 Z"/></g>
<g><path style="opacity:1" fill="#093464" d="M 30.5,15.5 C 30.1583,16.3382 29.4916,16.6716 28.5,16.5C 25.8333,16.5 23.1667,16.5 20.5,16.5C 19.8333,16.5 19.5,16.1667 19.5,15.5C 23.1667,14.1667 26.8333,14.1667 30.5,15.5 Z"/></g>
<g><path style="opacity:0.638" fill="#073966" d="M 46.5,16.5 C 47.9587,16.4326 49.2921,16.7659 50.5,17.5C 50.5,18.1667 50.5,18.8333 50.5,19.5C 47.9228,20.6061 46.2561,22.6061 45.5,25.5C 44.5,24.1667 43.5,24.1667 42.5,25.5C 41.9524,23.6064 40.9524,21.9397 39.5,20.5C 41.2592,19.246 42.7592,19.5794 44,21.5C 44.7914,20.255 45.2914,18.9217 45.5,17.5C 46.1667,17.5 46.5,17.1667 46.5,16.5 Z"/></g>
<g><path style="opacity:1" fill="#03e5cc" d="M 20.5,16.5 C 23.1667,16.5 25.8333,16.5 28.5,16.5C 31.1001,17.9689 30.7668,18.9689 27.5,19.5C 24.7531,19.8134 22.0865,19.48 19.5,18.5C 19.8627,17.8165 20.1961,17.1499 20.5,16.5 Z"/></g>
<g><path style="opacity:0.078" fill="#0b305f" d="M 16.5,18.5 C 17.6873,20.0725 18.6873,21.7392 19.5,23.5C 20.1667,23.5 20.5,23.8333 20.5,24.5C 18.8148,25.1837 17.8148,26.517 17.5,28.5C 18.2458,29.7362 18.5792,31.0695 18.5,32.5C 17.8333,32.5 17.5,32.8333 17.5,33.5C 16.5128,28.6946 16.1795,23.6946 16.5,18.5 Z"/></g>
<g><path style="opacity:0.902" fill="#09406a" d="M 19.5,15.5 C 19.5,16.1667 19.8333,16.5 20.5,16.5C 20.1961,17.1499 19.8627,17.8165 19.5,18.5C 22.0865,19.48 24.7531,19.8134 27.5,19.5C 25.3926,20.4682 23.0593,20.8016 20.5,20.5C 19.596,21.209 19.2627,22.209 19.5,23.5C 18.6873,21.7392 17.6873,20.0725 16.5,18.5C 17.1667,17.1667 18.1667,16.1667 19.5,15.5 Z"/></g>
<g><path style="opacity:0.168" fill="#07335f" d="M 32.5,16.5 C 33.8333,22.1667 33.8333,27.8333 32.5,33.5C 32.5,32.8333 32.1667,32.5 31.5,32.5C 33.0733,29.6274 32.7399,26.9607 30.5,24.5C 29.8933,24.6236 29.56,24.9569 29.5,25.5C 26.5,25.5 23.5,25.5 20.5,25.5C 20.5,25.1667 20.5,24.8333 20.5,24.5C 23.1873,24.6641 25.854,24.4974 28.5,24C 29.4158,23.7216 30.0825,23.2216 30.5,22.5C 31.2852,20.6264 31.9518,18.6264 32.5,16.5 Z"/></g>
<g><path style="opacity:0.996" fill="#073967" d="M 9.5,17.5 C 10.4916,17.3284 11.1583,17.6618 11.5,18.5C 10.0812,21.1004 8.41455,23.6004 6.5,26C 9.44709,26.1118 10.7804,27.6118 10.5,30.5C 8.08854,30.8633 6.58854,29.8633 6,27.5C 5.20858,28.745 4.70858,30.0783 4.5,31.5C 3.83333,31.5 3.5,31.8333 3.5,32.5C 2.04125,32.5674 0.707917,32.2341 -0.5,31.5C -0.5,30.8333 -0.5,30.1667 -0.5,29.5C 1.14054,28.853 2.47387,27.853 3.5,26.5C 5.25027,25.3406 6.25027,23.674 6.5,21.5C 7.51163,20.1283 8.51163,18.795 9.5,17.5 Z"/></g>
<g><path style="opacity:1" fill="#094473" d="M 30.5,15.5 C 31.1667,15.8333 31.8333,16.1667 32.5,16.5C 31.9518,18.6264 31.2852,20.6264 30.5,22.5C 27.1667,21.8333 23.8333,21.1667 20.5,20.5C 23.0593,20.8016 25.3926,20.4682 27.5,19.5C 30.7668,18.9689 31.1001,17.9689 28.5,16.5C 29.4916,16.6716 30.1583,16.3382 30.5,15.5 Z"/></g>
<g><path style="opacity:0.488" fill="#09365f" d="M 6.5,21.5 C 6.25027,23.674 5.25027,25.3406 3.5,26.5C 3.41423,25.5041 3.74756,24.6708 4.5,24C 1.09596,22.1366 0.92929,20.3033 4,18.5C 4.85175,19.5707 5.68509,20.5707 6.5,21.5 Z"/></g>
<g><path style="opacity:1" fill="#01a9e6" d="M 20.5,20.5 C 23.8333,21.1667 27.1667,21.8333 30.5,22.5C 30.0825,23.2216 29.4158,23.7216 28.5,24C 25.854,24.4974 23.1873,24.6641 20.5,24.5C 20.5,23.8333 20.1667,23.5 19.5,23.5C 19.2627,22.209 19.596,21.209 20.5,20.5 Z"/></g>
<g><path style="opacity:0.703" fill="#083969" d="M 45.5,25.5 C 46.629,27.2751 47.629,28.9418 48.5,30.5C 48.7148,32.1788 48.0481,33.1788 46.5,33.5C 45.9553,31.4068 45.122,29.4068 44,27.5C 43.7216,28.4158 43.2216,29.0825 42.5,29.5C 41.8333,29.1667 41.1667,28.8333 40.5,28.5C 40.427,26.9731 41.0937,25.9731 42.5,25.5C 43.5,24.1667 44.5,24.1667 45.5,25.5 Z"/></g>
<g><path style="opacity:1" fill="#05e2ca" d="M 20.5,25.5 C 23.5,25.5 26.5,25.5 29.5,25.5C 30.404,26.209 30.7373,27.209 30.5,28.5C 27.5,28.5 24.5,28.5 21.5,28.5C 19.4482,27.9473 19.1148,26.9473 20.5,25.5 Z"/></g>
<g><path style="opacity:1" fill="#0d557a" d="M 29.5,25.5 C 29.56,24.9569 29.8933,24.6236 30.5,24.5C 32.7399,26.9607 33.0733,29.6274 31.5,32.5C 31.1667,32.5 30.8333,32.5 30.5,32.5C 30.5,31.1667 29.8333,30.5 28.5,30.5C 26.1667,29.8333 23.8333,29.1667 21.5,28.5C 24.5,28.5 27.5,28.5 30.5,28.5C 30.7373,27.209 30.404,26.209 29.5,25.5 Z"/></g>
<g><path style="opacity:0.988" fill="#083a66" d="M 40.5,28.5 C 41.1667,28.8333 41.8333,29.1667 42.5,29.5C 40.4246,32.2422 38.0913,34.5756 35.5,36.5C 35.5,35.8333 35.1667,35.5 34.5,35.5C 35.7573,32.5726 37.7573,30.2393 40.5,28.5 Z"/></g>
<g><path style="opacity:1" fill="#0a4877" d="M 20.5,24.5 C 20.5,24.8333 20.5,25.1667 20.5,25.5C 19.1148,26.9473 19.4482,27.9473 21.5,28.5C 23.8333,29.1667 26.1667,29.8333 28.5,30.5C 24.9878,29.9455 21.9878,30.6122 19.5,32.5C 19.1667,32.5 18.8333,32.5 18.5,32.5C 18.5792,31.0695 18.2458,29.7362 17.5,28.5C 17.8148,26.517 18.8148,25.1837 20.5,24.5 Z"/></g>
<g><path style="opacity:1" fill="#00aae7" d="M 28.5,30.5 C 29.8333,30.5 30.5,31.1667 30.5,32.5C 26.8333,33.8333 23.1667,33.8333 19.5,32.5C 21.9878,30.6122 24.9878,29.9455 28.5,30.5 Z"/></g>
<g><path style="opacity:0.747" fill="#073965" d="M -0.5,31.5 C 0.707917,32.2341 2.04125,32.5674 3.5,32.5C 4.16667,32.5 4.5,32.1667 4.5,31.5C 6.46632,32.2545 6.79965,33.4212 5.5,35C 3.40239,35.6776 1.40239,35.5109 -0.5,34.5C -0.5,33.5 -0.5,32.5 -0.5,31.5 Z"/></g>
<g><path style="opacity:0.625" fill="#083966" d="M 18.5,32.5 C 18.8333,32.5 19.1667,32.5 19.5,32.5C 23.1667,33.8333 26.8333,33.8333 30.5,32.5C 30.8333,32.5 31.1667,32.5 31.5,32.5C 32.1667,32.5 32.5,32.8333 32.5,33.5C 30.3655,35.0334 27.8655,35.7001 25,35.5C 22.1345,35.7001 19.6345,35.0334 17.5,33.5C 17.5,32.8333 17.8333,32.5 18.5,32.5 Z"/></g>
<g><path style="opacity:0.502" fill="#0e3357" d="M 34.5,35.5 C 35.1667,35.5 35.5,35.8333 35.5,36.5C 34.8366,39.423 33.1699,40.0897 30.5,38.5C 31.2826,36.7118 32.6159,35.7118 34.5,35.5 Z"/></g>
<g><path style="opacity:0.85" fill="#0a375e" d="M -0.5,36.5 C 0.5,36.5 1.5,36.5 2.5,36.5C 2.37133,38.2161 2.038,39.8828 1.5,41.5C 1.16667,42.8333 0.833333,44.1667 0.5,45.5C 0.166667,45.5 -0.166667,45.5 -0.5,45.5C -0.5,42.5 -0.5,39.5 -0.5,36.5 Z"/></g>
<g><path style="opacity:0.576" fill="#083a65" d="M 17.5,36.5 C 18.1157,37.7978 18.1157,38.7978 17.5,39.5C 14.9312,38.3711 12.7645,36.7044 11,34.5C 10.5172,33.552 10.3505,32.552 10.5,31.5C 13.3882,31.2196 14.8882,32.5529 15,35.5C 16.159,34.434 16.9924,34.7673 17.5,36.5 Z"/></g>
<g><path style="opacity:0.966" fill="#083a67" d="M 17.5,36.5 C 19.8652,38.8603 22.5319,40.8603 25.5,42.5C 26.5195,41.3128 27.6861,40.3128 29,39.5C 30.951,41.1371 30.7843,42.6371 28.5,44C 29.745,44.7914 31.0783,45.2914 32.5,45.5C 32.5,46.1667 32.8333,46.5 33.5,46.5C 33.5674,47.9587 33.2341,49.2921 32.5,50.5C 31.8333,50.5 31.1667,50.5 30.5,50.5C 30.631,49.7611 30.4643,49.0944 30,48.5C 27.833,47.5119 25.9997,46.1786 24.5,44.5C 24.0269,43.0937 23.0269,42.427 21.5,42.5C 19.5956,42.2624 18.2623,41.2624 17.5,39.5C 18.1157,38.7978 18.1157,37.7978 17.5,36.5 Z"/></g>
<g><path style="opacity:0.801" fill="#083863" d="M 48.5,30.5 C 49.1667,31.8333 49.8333,33.1667 50.5,34.5C 50.5,37.1667 50.5,39.8333 50.5,42.5C 49.5,41.1667 48.5,41.1667 47.5,42.5C 47.7359,39.3915 47.4025,36.3915 46.5,33.5C 48.0481,33.1788 48.7148,32.1788 48.5,30.5 Z"/></g>
<g><path style="opacity:0.793" fill="#073b69" d="M 50.5,42.5 C 50.5,43.1667 50.5,43.8333 50.5,44.5C 49.5275,46.1392 48.1942,47.4726 46.5,48.5C 44.3023,48.5912 43.9689,47.9245 45.5,46.5C 46.1667,45.1667 46.8333,43.8333 47.5,42.5C 48.5,41.1667 49.5,41.1667 50.5,42.5 Z"/></g>
<g><path style="opacity:0.779" fill="#063966" d="M 1.5,41.5 C 2.838,46.5128 6.17133,48.5128 11.5,47.5C 11.5,48.5 11.5,49.5 11.5,50.5C 9.16667,50.5 6.83333,50.5 4.5,50.5C 2.63288,49.2402 1.29955,47.5735 0.5,45.5C 0.833333,44.1667 1.16667,42.8333 1.5,41.5 Z"/></g>
<g><path style="opacity:1" fill="#093963" d="M 21.5,42.5 C 23.0269,42.427 24.0269,43.0937 24.5,44.5C 23.8423,45.3984 23.1757,46.3984 22.5,47.5C 20.7367,48.9538 19.4033,48.6204 18.5,46.5C 19.6651,45.4164 20.9984,44.5831 22.5,44C 21.944,43.6174 21.6107,43.1174 21.5,42.5 Z"/></g>
<g><path style="opacity:0.835" fill="#0b3667" d="M 15.5,50.5 C 14.8333,50.5 14.1667,50.5 13.5,50.5C 13.1667,47.5 14.5,46.1667 17.5,46.5C 17.4729,48.1993 16.8062,49.5326 15.5,50.5 Z"/></g>
<g><path style="opacity:0.712" fill="#093865" d="M 45.5,46.5 C 43.9689,47.9245 44.3023,48.5912 46.5,48.5C 45.8333,49.1667 45.1667,49.8333 44.5,50.5C 41.8333,50.5 39.1667,50.5 36.5,50.5C 36.1667,49.1667 35.8333,49.1667 35.5,50.5C 34.5,50.5 33.5,50.5 32.5,50.5C 33.2341,49.2921 33.5674,47.9587 33.5,46.5C 32.8333,46.5 32.5,46.1667 32.5,45.5C 32.8425,43.7748 33.8425,43.2748 35.5,44C 36.3366,45.0113 36.67,46.1779 36.5,47.5C 39.5701,47.6323 42.5701,47.299 45.5,46.5 Z"/></g>
</svg>
